<?xml version="1.0" encoding="utf-8"?>
<!-- Generator: Adobe Illustrator 16.0.0, SVG Export Plug-In . SVG Version: 6.00 Build 0)  -->
<!DOCTYPE svg PUBLIC "-//W3C//DTD SVG 1.1//EN" "http://www.w3.org/Graphics/SVG/1.1/DTD/svg11.dtd">
<svg version="1.1" xmlns="http://www.w3.org/2000/svg" xmlns:xlink="http://www.w3.org/1999/xlink" x="0px" y="0px"
	 width="560.01px" height="560px" viewBox="0 0 560.01 560" enable-background="new 0 0 560.01 560" xml:space="preserve">
<g id="Calque_3">
</g>
<g id="Calque_1">
	<circle fill="#FFFFFF" cx="274.038" cy="276.927" r="241.725"/>
	<path fill="#FFFFFF" stroke="#000000" stroke-miterlimit="10" d="M-194.97,284.708"/>
	<g>
		<g>
			<path fill="#212121" d="M375.366,529.624c-0.099-42.605-0.198-85.212-0.297-127.817c-0.12-51.989-0.241-103.979-0.362-155.969
				c-0.003-1.591-0.007-3.182-0.011-4.772c-0.005-1.935-3.005-1.935-3,0c0.099,42.605,0.198,85.212,0.297,127.817
				c0.12,51.989,0.241,103.979,0.362,155.969c0.003,1.591,0.007,3.182,0.011,4.772C372.371,531.559,375.371,531.559,375.366,529.624
				L375.366,529.624z"/>
		</g>
	</g>
	<g>
		<g>
			<path fill="#212121" d="M266.991,52.191c20.089,29.433,40.179,58.866,60.269,88.299
				c35.954,52.677,71.908,105.354,107.862,158.031c19.13,28.025,38.258,56.053,57.389,84.077c2.767,4.054,5.534,8.106,8.301,12.159
				c1.083,1.588,3.685,0.089,2.59-1.514c-18.394-26.945-36.786-53.893-55.179-80.839c-35.44-51.924-70.881-103.848-106.321-155.772
				c-23.77-34.825-47.54-69.65-71.31-104.476c-0.337-0.493-0.674-0.987-1.01-1.48C268.498,49.09,265.897,50.588,266.991,52.191
				L266.991,52.191z"/>
		</g>
	</g>
	<line fill="none" stroke="#000000" stroke-miterlimit="10" x1="1016.573" y1="294.063" x2="1016.573" y2="363.952"/>
	<g>
		<g>
			<path fill="#212121" d="M421.364,263.659c18.36-5.806,33.551-17.532,41.218-35.509c8.7-20.4,7.606-45.237-2.11-65.02
				c-9.067-18.461-26.772-31.869-47.354-34.002c-7.884-0.817-16.082-0.176-23.982-0.154c-33.705,0.094-67.411,0.187-101.116,0.281
				c-1.935,0.005-1.935,3.005,0,3c23.185-0.064,46.369-0.129,69.554-0.193c13.904-0.039,27.808-0.078,41.712-0.116
				c11.837-0.033,22.747,0.501,33.62,6.262c24.923,13.206,34.639,42.609,31.857,69.239c-2.729,26.137-19.412,45.483-44.194,53.32
				C418.729,261.348,419.515,264.244,421.364,263.659L421.364,263.659z"/>
		</g>
	</g>
	<path fill="none" stroke="#000000" stroke-miterlimit="10" d="M452.253,582.062"/>
	<g>
		<g>
			<path fill="#212121" d="M257.502,475.475c-0.282-44.436-0.564-88.872-0.846-133.308c-0.012-1.934-3.012-1.936-3,0
				c0.282,44.436,0.564,88.872,0.846,133.308C254.514,477.408,257.514,477.41,257.502,475.475L257.502,475.475z"/>
		</g>
	</g>
	<g>
		<g>
			<path fill="#212121" d="M95.115,279.866c-0.255-47.557-0.51-95.113-0.765-142.669c-0.152-28.416-0.304-56.831-0.457-85.247
				c-0.854,0.354-1.707,0.707-2.561,1.061c31.073,36.299,62.146,72.598,93.219,108.896c0.809,0.945,1.618,1.89,2.427,2.834
				c1.26,1.472,3.372-0.66,2.121-2.121c-31.073-36.299-62.146-72.598-93.219-108.896c-0.809-0.945-1.618-1.89-2.427-2.835
				c-0.874-1.021-2.567-0.177-2.561,1.061c0.255,47.557,0.51,95.113,0.765,142.669c0.152,28.416,0.304,56.831,0.457,85.247
				C92.125,281.8,95.125,281.801,95.115,279.866L95.115,279.866z"/>
		</g>
	</g>
	<g>
		<g>
			<path fill="#212121" d="M254.291,342.977c25.583,40.533,51.165,81.067,76.748,121.601c13.844,21.935,27.688,43.869,41.532,65.804
				c1.029,1.631,3.626,0.127,2.59-1.514c-25.582-40.533-51.165-81.067-76.747-121.601c-13.845-21.935-27.688-43.869-41.532-65.804
				C255.852,339.832,253.255,341.336,254.291,342.977L254.291,342.977z"/>
		</g>
	</g>
	<g>
		<circle fill="#212121" cx="143.906" cy="271.386" r="6.456"/>
	</g>
	<g>
		<g>
			<path fill="#212121" d="M269.025,188.913c-0.158-45.51-0.316-91.021-0.475-136.53c0-0.114,0-0.228-0.001-0.342
				c-0.005-1.573-1.973-1.94-2.795-0.757c-25.944,37.322-51.889,74.645-77.833,111.966c-0.046,0.066-0.091,0.131-0.137,0.197
				c-1.107,1.593,1.495,3.091,2.591,1.515c25.944-37.322,51.889-74.645,77.833-111.966c0.046-0.066,0.091-0.131,0.137-0.197
				c-0.932-0.252-1.864-0.505-2.795-0.757c0.158,45.51,0.316,91.021,0.475,136.53c0,0.114,0,0.228,0.001,0.342
				C266.032,190.847,269.032,190.848,269.025,188.913L269.025,188.913z"/>
		</g>
	</g>
	<g>
		<g>
			<path fill="#212121" d="M236.64,362.083c-22.558-11.049-38.511-31.735-43.354-56.395c-4.687-23.866,2.867-48.907,18.939-66.918
				c15.693-17.587,38.898-26.678,62.287-25.669c23.571,1.017,45.579,13.546,59.401,32.47c15.338,20.999,18.551,48.672,9.881,72.989
				c-0.651,1.826,2.248,2.605,2.893,0.797c15.798-44.304-9.191-93.239-54.316-106.339c-42.813-12.429-88.096,13.99-100.367,56.259
				c-10.94,37.686,8.266,78.326,43.122,95.396C236.856,365.521,238.377,362.934,236.64,362.083L236.64,362.083z"/>
		</g>
	</g>
	<g>
		<g>
			<path fill="#212121" d="M145.891,453.736c-0.309-48.643-0.618-97.285-0.927-145.927c-0.014-2.242-0.028-4.483-0.042-6.725
				c-0.012-1.934-3.012-1.936-3,0c0.309,48.643,0.618,97.285,0.927,145.927c0.014,2.242,0.028,4.483,0.042,6.725
				C142.903,455.67,145.903,455.672,145.891,453.736L145.891,453.736z"/>
		</g>
	</g>
	<rect x="-319.624" y="-151.91" fill="none" stroke="#212121" stroke-miterlimit="10" width="1136.238" height="1136.218"/>
	<rect x="-1" fill="none" stroke="#212121" stroke-miterlimit="10" width="0" height="0"/>
</g>
</svg>
